<?xml version="1.0" encoding="utf-8"?>
<!-- Generator: Adobe Illustrator 16.0.0, SVG Export Plug-In . SVG Version: 6.00 Build 0)  -->
<!DOCTYPE svg PUBLIC "-//W3C//DTD SVG 1.1//EN" "http://www.w3.org/Graphics/SVG/1.1/DTD/svg11.dtd">
<svg version="1.1" id="Layer_1" xmlns="http://www.w3.org/2000/svg" xmlns:xlink="http://www.w3.org/1999/xlink" x="0px" y="0px"
	 width="50px" height="100px" viewBox="0 0 50 100" enable-background="new 0 0 50 100" xml:space="preserve">
<g>
	<g>
		<path fill="#0084FF" d="M16.854,86h16.291c1.291,0,2.34,1.133,2.34,2.492s-1.049,2.494-2.34,2.494H16.854
			c-1.291,0-2.338-1.135-2.338-2.494S15.563,86,16.854,86z"/>
	</g>
</g>
<g>
	<g>
		<g>
			<path fill="#0084FF" d="M16.855,36h16.292c1.291,0,2.34,1.133,2.34,2.493c0,1.36-1.049,2.493-2.34,2.493H16.855
				c-1.291,0-2.338-1.134-2.338-2.493C14.517,37.134,15.564,36,16.855,36z"/>
		</g>
	</g>
</g>
<g>
	<g>
		<path fill="#CCCCCC" d="M17.154,17.511l1.172,13.125c0,0.799,0.811,1.221,1.447,1.447c0,0,2.225,0.756,5.266,0.758
			c3.041-0.002,5.268-0.758,5.268-0.758c0.633-0.227,1.445-0.648,1.445-1.447l1.117-13.125H17.154z M22.396,29.451
			c0.033,0.514-0.355,0.957-0.867,0.994c-0.514,0.035-0.959-0.354-0.994-0.865l0,0l-0.582-8.514
			c-0.033-0.515,0.354-0.959,0.867-0.994c0.513-0.035,0.959,0.354,0.992,0.867L22.396,29.451L22.396,29.451z M25.971,29.525
			c0,0.514-0.416,0.932-0.932,0.932c-0.514,0-0.932-0.418-0.932-0.932v-8.534c0-0.514,0.418-0.933,0.932-0.933
			c0.516,0,0.932,0.419,0.932,0.933V29.525z M29.543,29.58L29.543,29.58c-0.035,0.512-0.479,0.9-0.992,0.865
			c-0.514-0.037-0.9-0.48-0.867-0.994l0,0l0.582-8.512c0.035-0.514,0.48-0.902,0.992-0.867c0.514,0.035,0.902,0.479,0.865,0.994
			L29.543,29.58z"/>
	</g>
	<path fill="#CCCCCC" d="M27.908,12.809v-1.015c0-1.357-1.1-2.457-2.457-2.457h-0.846c-1.355,0-2.455,1.1-2.455,2.457v0.998
		c-2.125,0.577-3.998,1.767-5.396,3.385h16.492C31.859,14.572,30.008,13.392,27.908,12.809z M23.805,12.466v-0.664
		c0-0.452,0.365-0.818,0.818-0.818h0.813c0.451,0,0.816,0.366,0.816,0.818v0.67C25.842,12.426,25.424,12.4,25,12.4
		C24.596,12.399,24.195,12.423,23.805,12.466z"/>
</g>
<g>
	<g>
		<path fill="#FFFFFF" d="M17.154,67.512l1.172,13.125c0,0.799,0.811,1.221,1.447,1.447c0,0,2.225,0.756,5.266,0.758
			c3.041-0.002,5.268-0.758,5.268-0.758c0.633-0.227,1.445-0.648,1.445-1.447l1.117-13.125H17.154z M22.396,79.451
			c0.033,0.514-0.355,0.957-0.867,0.994c-0.514,0.035-0.959-0.354-0.994-0.865l0,0l-0.582-8.514
			c-0.033-0.517,0.354-0.959,0.867-0.994c0.513-0.035,0.959,0.354,0.992,0.867L22.396,79.451L22.396,79.451z M25.971,79.525
			c0,0.514-0.416,0.932-0.932,0.932c-0.514,0-0.932-0.418-0.932-0.932v-8.533c0-0.514,0.418-0.934,0.932-0.934
			c0.516,0,0.932,0.42,0.932,0.934V79.525z M29.543,79.58L29.543,79.58c-0.035,0.512-0.479,0.9-0.992,0.865
			c-0.514-0.037-0.9-0.48-0.867-0.994l0,0l0.582-8.512c0.035-0.515,0.48-0.902,0.992-0.867c0.514,0.035,0.902,0.479,0.865,0.994
			L29.543,79.58z"/>
	</g>
	<path fill="#FFFFFF" d="M27.908,62.809v-1.014c0-1.357-1.1-2.457-2.457-2.457h-0.846c-1.355,0-2.455,1.1-2.455,2.457v0.998
		c-2.125,0.576-3.998,1.766-5.396,3.385h16.492C31.859,64.572,30.008,63.393,27.908,62.809z M23.805,62.467v-0.664
		c0-0.453,0.365-0.818,0.818-0.818h0.813c0.451,0,0.816,0.365,0.816,0.818v0.67C25.842,62.426,25.424,62.4,25,62.4
		C24.596,62.4,24.195,62.424,23.805,62.467z"/>
</g>
</svg>
