<?xml version="1.0" encoding="utf-8"?>
<!-- Generator: Adobe Illustrator 16.0.0, SVG Export Plug-In . SVG Version: 6.00 Build 0)  -->
<!DOCTYPE svg PUBLIC "-//W3C//DTD SVG 1.1//EN" "http://www.w3.org/Graphics/SVG/1.1/DTD/svg11.dtd">
<svg version="1.1" id="Layer_1" xmlns="http://www.w3.org/2000/svg" xmlns:xlink="http://www.w3.org/1999/xlink" x="0px" y="0px"
	 width="50px" height="100px" viewBox="0 0 50 100" enable-background="new 0 0 50 100" xml:space="preserve">
<g>
	<path fill="#0084FF" d="M16.854,36h16.291c1.291,0,2.34,1.133,2.34,2.493c0,1.36-1.049,2.493-2.34,2.493H16.854
		c-1.291,0-2.338-1.134-2.338-2.493C14.516,37.134,15.563,36,16.854,36z"/>
	<g>
		<g>
			<path fill="#CCCCCC" d="M15.985,27.973c-1.087,0-1.967-0.879-1.967-1.966V14.841c0-1.085,0.88-1.965,1.967-1.965h16.828
				c1.086,0,1.967,0.88,1.967,1.965v5.485l2.466-2.463v-3.03c0-2.443-1.979-4.422-4.425-4.422H15.978
				c-2.442,0-4.423,1.979-4.423,4.422v11.183c0,2.442,1.98,4.424,4.423,4.424h8.689l2.465-2.467H15.985z"/>
		</g>
		<g>
			<path fill="#CCCCCC" d="M27.281,30.727l-0.356,3.192l3.116-0.433C29.154,31.658,27.548,30.85,27.281,30.727z"/>
			<path fill="#CCCCCC" d="M38.756,22.015h0.004c0,0-1.005-1.097-2.023-1.063l-8.938,8.937c0.531,0.262,2.129,1.188,3.08,3.089
				l8.939-8.94C39.854,23.018,38.756,22.015,38.756,22.015z"/>
		</g>
		<g>
			<path fill="#CCCCCC" d="M19.686,16.238c-0.082-0.033-0.166-0.049-0.255-0.049l-0.129,0.012c-0.134,0.025-0.25,0.091-0.349,0.187
				l-1.361,1.362c-0.119,0.133-0.183,0.293-0.183,0.47c0,0.174,0.063,0.336,0.203,0.49c0.26,0.237,0.662,0.25,0.949-0.011
				L18.76,18.5v4.896c0,0.187,0.069,0.353,0.202,0.479c0.13,0.123,0.294,0.188,0.475,0.188c0.172,0,0.332-0.062,0.464-0.182
				c0.14-0.129,0.214-0.296,0.214-0.485v-6.531c0-0.138-0.038-0.265-0.112-0.376C19.925,16.372,19.815,16.285,19.686,16.238z"/>
			<path fill="#CCCCCC" d="M25.304,22.677H23.9l0.263-0.509c0.106-0.208,0.22-0.424,0.341-0.652c0.12-0.229,0.239-0.457,0.354-0.679
				l0.873-1.675c0.265-0.48,0.315-0.993,0.156-1.536c-0.08-0.253-0.205-0.484-0.369-0.687c-0.166-0.199-0.366-0.366-0.597-0.493
				c-0.229-0.129-0.476-0.209-0.733-0.237c-0.257-0.033-0.524-0.013-0.776,0.057c-0.257,0.064-0.494,0.181-0.705,0.343
				c-0.208,0.16-0.384,0.359-0.515,0.585c-0.101,0.165-0.124,0.349-0.066,0.533c0.053,0.162,0.159,0.297,0.313,0.394
				c0.164,0.1,0.348,0.125,0.522,0.073c0.169-0.048,0.308-0.154,0.412-0.323c0.082-0.15,0.214-0.253,0.38-0.307
				c0.187-0.042,0.369-0.02,0.515,0.054c0.08,0.048,0.149,0.107,0.205,0.177c0.058,0.072,0.101,0.151,0.125,0.222
				c0.052,0.187,0.037,0.354-0.047,0.515l-2.369,4.506c-0.11,0.213-0.101,0.448,0.015,0.633c0.104,0.224,0.319,0.354,0.589,0.354
				h2.52c0.175,0,0.336-0.068,0.467-0.193c0.139-0.13,0.211-0.297,0.211-0.483c0-0.191-0.074-0.36-0.217-0.488
				C25.635,22.74,25.475,22.677,25.304,22.677z"/>
			<path fill="#CCCCCC" d="M31.488,18.678v-0.455c0-0.229-0.036-0.453-0.106-0.66c-0.069-0.212-0.176-0.404-0.305-0.573
				c-0.132-0.172-0.291-0.32-0.479-0.444c-0.184-0.122-0.388-0.213-0.617-0.281c-0.219-0.054-0.445-0.073-0.655-0.057
				c-0.22,0.014-0.431,0.065-0.634,0.147c-0.198,0.082-0.385,0.196-0.555,0.339c-0.166,0.143-0.31,0.315-0.425,0.508
				c-0.103,0.162-0.127,0.345-0.075,0.526c0.049,0.167,0.155,0.307,0.307,0.4c0.162,0.1,0.345,0.127,0.527,0.075
				c0.168-0.05,0.309-0.156,0.405-0.314c0.079-0.136,0.187-0.229,0.327-0.285c0.145-0.058,0.295-0.066,0.441-0.032
				c0.146,0.036,0.26,0.114,0.35,0.235c0.095,0.126,0.14,0.264,0.14,0.416v0.455c0,0.198-0.062,0.351-0.194,0.479
				c-0.133,0.132-0.282,0.193-0.479,0.193c-0.186,0-0.35,0.066-0.479,0.194c-0.131,0.13-0.2,0.294-0.2,0.479
				c0,0.183,0.069,0.349,0.2,0.477c0.129,0.128,0.293,0.195,0.479,0.195c0.193,0,0.346,0.062,0.479,0.195
				c0.135,0.133,0.194,0.285,0.194,0.478v0.675c0,0.155-0.045,0.291-0.14,0.417c-0.09,0.123-0.204,0.198-0.348,0.235
				c-0.063,0.015-0.119,0.022-0.181,0.022c-0.091,0-0.178-0.019-0.265-0.053c-0.143-0.058-0.248-0.152-0.33-0.294
				c-0.098-0.155-0.239-0.263-0.412-0.305c-0.164-0.042-0.314-0.035-0.514,0.061c-0.155,0.096-0.266,0.236-0.313,0.412
				c-0.051,0.184-0.023,0.365,0.074,0.523c0.117,0.194,0.26,0.369,0.425,0.513c0.167,0.147,0.354,0.265,0.558,0.347
				c0.203,0.084,0.414,0.133,0.631,0.149c0.046,0.004,0.091,0.005,0.137,0.005c0.176,0,0.354-0.025,0.523-0.073
				c0.224-0.058,0.432-0.149,0.619-0.278c0.187-0.127,0.346-0.276,0.475-0.445c0.131-0.171,0.236-0.364,0.307-0.574
				c0.07-0.209,0.107-0.431,0.107-0.662v-0.675c0-0.334-0.073-0.642-0.217-0.916c-0.082-0.157-0.184-0.302-0.299-0.429
				c0.114-0.13,0.217-0.271,0.299-0.431C31.416,19.319,31.488,19.01,31.488,18.678z"/>
		</g>
	</g>
</g>
<path fill="#0084FF" d="M16.854,86h16.291c1.291,0,2.34,1.133,2.34,2.494c0,1.359-1.049,2.492-2.34,2.492H16.854
	c-1.291,0-2.338-1.135-2.338-2.492C14.516,87.135,15.563,86,16.854,86z"/>
<g>
	<g>
		<path fill="#FFFFFF" d="M15.985,77.973c-1.087,0-1.967-0.879-1.967-1.965V64.842c0-1.085,0.88-1.965,1.967-1.965h16.828
			c1.086,0,1.967,0.88,1.967,1.965v5.484l2.466-2.463v-3.029c0-2.443-1.979-4.422-4.425-4.422H15.978
			c-2.442,0-4.423,1.979-4.423,4.422v11.182c0,2.443,1.98,4.424,4.423,4.424h8.689l2.465-2.467H15.985z"/>
	</g>
	<g>
		<path fill="#FFFFFF" d="M27.281,80.727l-0.356,3.193l3.116-0.434C29.154,81.658,27.548,80.85,27.281,80.727z"/>
		<path fill="#FFFFFF" d="M38.756,72.016h0.004c0,0-1.005-1.098-2.023-1.063l-8.938,8.938c0.531,0.262,2.129,1.188,3.08,3.088
			l8.939-8.938C39.854,73.018,38.756,72.016,38.756,72.016z"/>
	</g>
	<g>
		<path fill="#FFFFFF" d="M19.686,66.238c-0.082-0.033-0.166-0.049-0.255-0.049l-0.129,0.012c-0.134,0.025-0.25,0.091-0.349,0.186
			l-1.361,1.363c-0.119,0.133-0.183,0.293-0.183,0.469c0,0.174,0.063,0.336,0.203,0.49c0.26,0.238,0.662,0.25,0.949-0.01L18.76,68.5
			v4.895c0,0.188,0.069,0.354,0.202,0.48c0.13,0.123,0.294,0.188,0.475,0.188c0.172,0,0.332-0.063,0.464-0.182
			c0.14-0.129,0.214-0.297,0.214-0.486v-6.529c0-0.139-0.038-0.266-0.112-0.375C19.925,66.372,19.815,66.285,19.686,66.238z"/>
		<path fill="#FFFFFF" d="M25.304,72.678H23.9l0.263-0.51c0.106-0.207,0.22-0.424,0.341-0.652c0.12-0.229,0.239-0.457,0.354-0.678
			l0.873-1.676c0.265-0.48,0.315-0.992,0.156-1.535c-0.08-0.254-0.205-0.484-0.369-0.688c-0.166-0.199-0.366-0.365-0.597-0.492
			c-0.229-0.129-0.476-0.209-0.733-0.237c-0.257-0.033-0.524-0.013-0.776,0.058c-0.257,0.063-0.494,0.182-0.705,0.342
			c-0.208,0.16-0.384,0.359-0.515,0.584c-0.101,0.166-0.124,0.352-0.066,0.533c0.053,0.162,0.159,0.297,0.313,0.396
			c0.164,0.102,0.348,0.125,0.522,0.07c0.169-0.047,0.308-0.152,0.412-0.32c0.082-0.148,0.214-0.254,0.38-0.309
			c0.187-0.043,0.369-0.02,0.515,0.055c0.08,0.049,0.149,0.105,0.205,0.178c0.058,0.072,0.101,0.148,0.125,0.223
			c0.052,0.188,0.037,0.354-0.047,0.516l-2.369,4.506c-0.11,0.213-0.101,0.447,0.015,0.633c0.104,0.223,0.319,0.354,0.589,0.354
			h2.52c0.175,0,0.336-0.066,0.467-0.191c0.139-0.131,0.211-0.297,0.211-0.482c0-0.191-0.074-0.359-0.217-0.488
			C25.635,72.74,25.475,72.678,25.304,72.678z"/>
		<path fill="#FFFFFF" d="M31.488,68.678v-0.455c0-0.229-0.036-0.453-0.106-0.66c-0.069-0.211-0.176-0.402-0.305-0.57
			c-0.132-0.174-0.291-0.32-0.479-0.445c-0.184-0.121-0.388-0.212-0.617-0.279c-0.219-0.055-0.445-0.072-0.655-0.058
			c-0.22,0.015-0.431,0.063-0.634,0.146c-0.198,0.082-0.385,0.195-0.555,0.338c-0.166,0.145-0.31,0.316-0.425,0.51
			c-0.103,0.162-0.127,0.346-0.075,0.525c0.049,0.166,0.155,0.309,0.307,0.4c0.162,0.1,0.345,0.127,0.527,0.074
			c0.168-0.049,0.309-0.156,0.405-0.314c0.079-0.135,0.187-0.229,0.327-0.285c0.145-0.057,0.295-0.064,0.441-0.029
			c0.146,0.033,0.26,0.111,0.35,0.232c0.095,0.127,0.14,0.264,0.14,0.416v0.455c0,0.199-0.062,0.354-0.194,0.48
			c-0.133,0.131-0.282,0.193-0.479,0.193c-0.186,0-0.35,0.064-0.479,0.191c-0.131,0.131-0.2,0.295-0.2,0.479
			c0,0.185,0.069,0.351,0.2,0.478c0.129,0.129,0.293,0.194,0.479,0.194c0.193,0,0.346,0.063,0.479,0.195
			c0.135,0.133,0.194,0.284,0.194,0.479v0.674c0,0.156-0.045,0.291-0.14,0.418c-0.09,0.123-0.204,0.197-0.348,0.233
			c-0.063,0.017-0.119,0.022-0.181,0.022c-0.091,0-0.178-0.021-0.265-0.053c-0.143-0.06-0.248-0.151-0.33-0.295
			c-0.098-0.154-0.239-0.263-0.412-0.306c-0.164-0.041-0.314-0.035-0.514,0.062c-0.155,0.097-0.266,0.235-0.313,0.412
			c-0.051,0.185-0.023,0.364,0.074,0.522c0.117,0.194,0.26,0.368,0.425,0.515c0.167,0.146,0.354,0.264,0.558,0.346
			c0.203,0.084,0.414,0.134,0.631,0.149c0.046,0.005,0.091,0.005,0.137,0.005c0.176,0,0.354-0.025,0.523-0.072
			c0.224-0.06,0.432-0.149,0.619-0.278c0.187-0.127,0.346-0.274,0.475-0.445c0.131-0.17,0.236-0.362,0.307-0.573
			c0.07-0.209,0.107-0.431,0.107-0.662v-0.674c0-0.334-0.073-0.644-0.217-0.916c-0.082-0.158-0.184-0.304-0.299-0.431
			c0.114-0.129,0.217-0.271,0.299-0.431C31.416,69.318,31.488,69.01,31.488,68.678z"/>
	</g>
</g>
</svg>
