<?xml version="1.0" encoding="utf-8"?>
<!-- Generator: Adobe Illustrator 16.0.0, SVG Export Plug-In . SVG Version: 6.00 Build 0)  -->
<!DOCTYPE svg PUBLIC "-//W3C//DTD SVG 1.1//EN" "http://www.w3.org/Graphics/SVG/1.1/DTD/svg11.dtd">
<svg version="1.1" id="Layer_1" xmlns="http://www.w3.org/2000/svg" xmlns:xlink="http://www.w3.org/1999/xlink" x="0px" y="0px"
	 width="50px" height="100px" viewBox="0 0 50 100" enable-background="new 0 0 50 100" xml:space="preserve">
<g>
	<path fill="#FF6D78" d="M16.854,86h16.291c1.291,0,2.34,1.133,2.34,2.492s-1.049,2.494-2.34,2.494H16.854
		c-1.291,0-2.338-1.135-2.338-2.494S15.563,86,16.854,86z"/>
</g>
<g>
	<g>
		<path fill="#FF6D78" d="M16.854,86h16.291c1.291,0,2.34,1.133,2.34,2.494c0,1.359-1.049,2.492-2.34,2.492H16.854
			c-1.291,0-2.338-1.135-2.338-2.492C14.517,87.135,15.563,86,16.854,86z"/>
	</g>
</g>
<g>
	<g>
		<g>
			<path fill="#FF6D78" d="M16.854,36h16.291c1.291,0,2.34,1.133,2.34,2.493c0,1.36-1.049,2.493-2.34,2.493H16.854
				c-1.291,0-2.338-1.134-2.338-2.493C14.517,37.134,15.563,36,16.854,36z"/>
		</g>
	</g>
</g>
<g>
	<g>
		<g>
			<path fill="#CCCCCC" d="M24.998,9.358c-2.951,0-5.354,2.342-5.354,5.217v1.977c0.064-0.002,0.126-0.01,0.191-0.01H21.5v-1.967
				c0-1.662,1.438-3.387,3.499-3.387c1.987,0,3.498,1.682,3.498,3.387v1.967h1.667c0.063,0,0.126,0.008,0.189,0.01v-1.977
				C30.355,11.7,27.953,9.358,24.998,9.358z"/>
		</g>
	</g>
	<g>
		<path fill="#CCCCCC" d="M31.408,17.823H18.59c-0.799,0-1.447,0.648-1.447,1.449v12.217c0,0.799,0.648,1.449,1.447,1.449h12.818
			c0.799,0,1.447-0.65,1.447-1.449V19.272C32.855,18.471,32.207,17.823,31.408,17.823z M26.035,25.514v3.111l0,0
			c0,0.572-0.465,1.035-1.037,1.035c-0.571,0-1.033-0.463-1.033-1.035l0,0v-3.109c-0.682-0.369-1.15-1.082-1.15-1.912
			c0-1.207,0.979-2.186,2.184-2.186c1.207,0,2.187,0.979,2.187,2.186C27.184,24.432,26.716,25.145,26.035,25.514z"/>
	</g>
</g>
<g>
	<g>
		<g>
			<path fill="#FFFFFF" d="M24.998,59.357c-2.951,0-5.354,2.343-5.354,5.218v1.977c0.064-0.002,0.126-0.01,0.191-0.01H21.5v-1.967
				c0-1.662,1.438-3.388,3.499-3.388c1.987,0,3.498,1.683,3.498,3.388v1.967h1.667c0.063,0,0.126,0.008,0.189,0.01v-1.977
				C30.355,61.7,27.953,59.357,24.998,59.357z"/>
		</g>
	</g>
	<g>
		<path fill="#FFFFFF" d="M31.408,67.823H18.59c-0.799,0-1.447,0.646-1.447,1.448v12.217c0,0.799,0.648,1.449,1.447,1.449h12.818
			c0.799,0,1.447-0.65,1.447-1.449V69.271C32.855,68.473,32.207,67.823,31.408,67.823z M26.035,75.514v3.111l0,0
			c0,0.572-0.465,1.035-1.037,1.035c-0.571,0-1.033-0.463-1.033-1.035l0,0v-3.109c-0.682-0.369-1.15-1.082-1.15-1.912
			c0-1.205,0.979-2.185,2.184-2.185c1.207,0,2.187,0.979,2.187,2.185C27.184,74.432,26.716,75.145,26.035,75.514z"/>
	</g>
</g>
</svg>
