<?xml version="1.0" encoding="utf-8"?>
<!-- Generator: Adobe Illustrator 16.0.0, SVG Export Plug-In . SVG Version: 6.00 Build 0)  -->
<!DOCTYPE svg PUBLIC "-//W3C//DTD SVG 1.1//EN" "http://www.w3.org/Graphics/SVG/1.1/DTD/svg11.dtd">
<svg version="1.1" id="Layer_1" xmlns="http://www.w3.org/2000/svg" xmlns:xlink="http://www.w3.org/1999/xlink" x="0px" y="0px"
	 width="50px" height="100px" viewBox="0 0 50 100" enable-background="new 0 0 50 100" xml:space="preserve">
<g>
	<g>
		<path fill="#FFC600" d="M16.854,36h16.291c1.291,0,2.34,1.133,2.34,2.493c0,1.36-1.049,2.493-2.34,2.493H16.854
			c-1.291,0-2.338-1.134-2.338-2.493C14.517,37.134,15.563,36,16.854,36z"/>
	</g>
</g>
<g>
	<path fill="#FFC600" d="M16.854,86h16.291c1.291,0,2.34,1.133,2.34,2.492s-1.049,2.494-2.34,2.494H16.854
		c-1.291,0-2.338-1.135-2.338-2.494S15.563,86,16.854,86z"/>
</g>
<g>
	<path fill="#CCCCCC" d="M19.462,10.107c-0.02-0.021-0.043-0.035-0.063-0.053c-0.05-0.044-0.098-0.088-0.152-0.126
		c-0.003-0.001-0.005-0.004-0.009-0.006c-0.042-0.028-0.088-0.048-0.133-0.07C19.07,9.835,19.037,9.813,19,9.798
		c-0.062-0.024-0.122-0.042-0.185-0.058c-0.027-0.007-0.055-0.018-0.082-0.025c-0.188-0.036-0.381-0.036-0.566,0
		c-0.034,0.008-0.065,0.02-0.098,0.03c-0.057,0.015-0.113,0.028-0.168,0.052c-0.051,0.021-0.1,0.051-0.147,0.077
		c-0.032,0.019-0.066,0.032-0.097,0.052c-0.083,0.055-0.16,0.118-0.229,0.19L13.39,14.15c-0.559,0.56-0.558,1.467,0.001,2.025
		c0.561,0.559,1.467,0.559,2.023,0l1.604-1.602v17.049c0,0.791,0.638,1.432,1.432,1.432c0.791,0,1.432-0.641,1.432-1.432
		L19.88,14.575l1.596,1.595c0.557,0.557,1.467,0.557,2.025,0c0.559-0.561,0.559-1.467-0.001-2.026L19.462,10.107z"/>
	<path fill="#CCCCCC" d="M36.51,26.566c-0.561-0.56-1.466-0.56-2.023,0l-1.603,1.601V11.118c0-0.791-0.64-1.431-1.433-1.431
		c-0.79,0-1.432,0.638-1.432,1.431v17.049l-1.594-1.596c-0.559-0.558-1.468-0.558-2.025,0c-0.558,0.562-0.558,1.466,0.002,2.026
		l4.035,4.035c0.066,0.067,0.142,0.128,0.221,0.182c0.033,0.021,0.068,0.036,0.102,0.055c0.047,0.026,0.094,0.055,0.145,0.076
		c0.052,0.021,0.104,0.033,0.156,0.047c0.037,0.012,0.072,0.026,0.109,0.034c0.186,0.036,0.378,0.036,0.564,0
		c0.039-0.008,0.074-0.023,0.113-0.034c0.051-0.016,0.102-0.026,0.151-0.047c0.058-0.024,0.11-0.055,0.164-0.088
		c0.024-0.014,0.055-0.025,0.079-0.042c0.085-0.057,0.16-0.12,0.23-0.19l4.035-4.034C37.07,28.031,37.068,27.125,36.51,26.566z"/>
</g>
<g>
	<g>
		<path fill="#FFFFFF" d="M19.462,60.107c-0.02-0.021-0.043-0.035-0.063-0.053c-0.05-0.044-0.098-0.089-0.152-0.125
			c-0.003-0.003-0.005-0.005-0.009-0.007c-0.042-0.028-0.088-0.049-0.133-0.069c-0.035-0.019-0.068-0.041-0.104-0.056
			c-0.062-0.024-0.122-0.043-0.185-0.059c-0.027-0.007-0.055-0.019-0.082-0.025c-0.188-0.034-0.381-0.034-0.566,0
			c-0.034,0.009-0.065,0.021-0.098,0.031c-0.057,0.014-0.113,0.026-0.168,0.051c-0.051,0.021-0.1,0.052-0.147,0.078
			c-0.032,0.019-0.066,0.03-0.097,0.051c-0.083,0.056-0.16,0.119-0.229,0.191l-4.038,4.032c-0.559,0.562-0.558,1.468,0.001,2.025
			c0.561,0.559,1.467,0.559,2.023,0l1.604-1.602v17.049c0,0.791,0.638,1.432,1.432,1.432c0.791,0,1.432-0.641,1.432-1.432
			L19.88,64.576l1.596,1.594c0.557,0.557,1.467,0.557,2.025,0c0.559-0.561,0.559-1.467-0.001-2.025L19.462,60.107z"/>
		<path fill="#FFFFFF" d="M36.51,76.566c-0.561-0.56-1.466-0.56-2.023,0l-1.603,1.602V61.119c0-0.791-0.64-1.432-1.433-1.432
			c-0.79,0-1.432,0.639-1.432,1.432v17.049l-1.594-1.596c-0.559-0.559-1.468-0.559-2.025,0c-0.558,0.561-0.558,1.465,0.002,2.025
			l4.035,4.034c0.066,0.068,0.142,0.129,0.221,0.183c0.033,0.021,0.068,0.037,0.102,0.055c0.047,0.027,0.094,0.055,0.145,0.076
			c0.052,0.021,0.104,0.033,0.156,0.047c0.037,0.012,0.072,0.027,0.109,0.035c0.186,0.035,0.378,0.035,0.564,0
			c0.039-0.008,0.074-0.023,0.113-0.035c0.051-0.016,0.102-0.025,0.151-0.047c0.058-0.023,0.11-0.055,0.164-0.088
			c0.024-0.015,0.055-0.025,0.079-0.041c0.085-0.058,0.16-0.121,0.23-0.191l4.035-4.033C37.07,78.031,37.068,77.125,36.51,76.566z"
			/>
	</g>
</g>
</svg>
